<svg width="30" height="30" viewBox="0 0 30 30" fill="none" xmlns="http://www.w3.org/2000/svg">
<g clip-path="url(#clip0_39_109)">
<path d="M28.7498 18.75H27.916C27.6035 18.75 27.2935 18.7738 26.9848 18.8213L18.1773 12.2163L20.2873 10.1963C20.786 9.71878 20.8035 8.92628 20.326 8.42878C19.8473 7.93003 19.0548 7.91378 18.5585 8.39003L13.3423 13.3838C13.0823 13.6438 12.7285 13.7775 12.3573 13.7463C11.9848 13.7163 11.6573 13.5275 11.4335 13.215C11.091 12.74 11.196 11.9963 11.6435 11.5475L17.5223 6.01128C18.636 4.96503 20.3773 4.70878 21.7398 5.39253L24.6348 6.84003C25.4973 7.27128 26.4648 7.49878 27.4285 7.49878H28.7485C29.4398 7.49878 29.9985 6.94003 29.9985 6.24878C29.9985 5.55753 29.4398 4.99878 28.7485 4.99878H27.4285C26.8498 4.99878 26.2685 4.86253 25.751 4.60378L22.8585 3.15628C20.5785 2.01503 17.6673 2.43878 15.8073 4.19128L15.0348 4.91878L14.1598 4.12128C13.011 3.07503 11.5235 2.49878 9.92229 2.49878C8.95854 2.49878 7.99729 2.72628 7.13854 3.15503L4.24604 4.60253C3.72729 4.86128 3.14604 4.99753 2.56729 4.99753H1.24979C0.558535 4.99753 -0.000214844 5.55628 -0.000214844 6.24753C-0.000214844 6.93878 0.558535 7.49753 1.24979 7.49753H2.56979C3.53354 7.49753 4.50104 7.26878 5.36479 6.83878L8.25979 5.39128C9.53729 4.74878 11.3323 4.92253 12.4773 5.96878L13.211 6.63753L9.90354 9.75253C8.56229 11.0925 8.34854 13.2113 9.40604 14.675C10.056 15.5788 11.3473 16.2488 12.461 16.2488C13.4523 16.2488 14.4035 15.8588 15.091 15.17L16.3485 13.9663L24.281 19.915C24.2423 19.9425 16.5335 25.7225 16.5335 25.7225C15.6298 26.425 14.3685 26.425 13.446 25.7088L5.83229 19.9988C4.75854 19.1925 3.42604 18.7488 2.08229 18.7488H1.24854C0.557285 18.7488 -0.00146484 19.3075 -0.00146484 19.9988C-0.00146484 20.69 0.557285 21.2488 1.24854 21.2488H2.08229C2.88854 21.2488 3.68729 21.515 4.33229 21.9988L11.9285 27.6963C12.8348 28.4013 13.921 28.7538 15.0048 28.7538C16.0823 28.7538 17.1585 28.405 18.051 27.71L25.6673 22C26.311 21.5163 27.1098 21.25 27.916 21.25H28.7498C29.441 21.25 29.9998 20.6913 29.9998 20C29.9998 19.3088 29.441 18.75 28.7498 18.75Z" fill="#FABB18"/>
</g>
<defs>
<clipPath id="clip0_39_109">
<rect width="30" height="30" fill="white"/>
</clipPath>
</defs>
</svg>
