<svg width="30" height="30" viewBox="0 0 30 30" fill="none" xmlns="http://www.w3.org/2000/svg">
<path d="M23.75 6.25H20V5C20 4.00544 19.6049 3.05161 18.9017 2.34835C18.1984 1.64509 17.2446 1.25 16.25 1.25H13.75C12.7554 1.25 11.8016 1.64509 11.0983 2.34835C10.3951 3.05161 10 4.00544 10 5V6.25H6.25C4.59301 6.25199 3.00445 6.9111 1.83277 8.08278C0.661102 9.25445 0.00198482 10.843 0 12.5L0 22.5C0.00198482 24.157 0.661102 25.7456 1.83277 26.9172C3.00445 28.0889 4.59301 28.748 6.25 28.75H23.75C25.407 28.748 26.9956 28.0889 28.1672 26.9172C29.3389 25.7456 29.998 24.157 30 22.5V12.5C29.998 10.843 29.3389 9.25445 28.1672 8.08278C26.9956 6.9111 25.407 6.25199 23.75 6.25ZM12.5 5C12.5 4.66848 12.6317 4.35054 12.8661 4.11612C13.1005 3.8817 13.4185 3.75 13.75 3.75H16.25C16.5815 3.75 16.8995 3.8817 17.1339 4.11612C17.3683 4.35054 17.5 4.66848 17.5 5V6.25H12.5V5ZM27.5 22.5C27.5 23.4946 27.1049 24.4484 26.4017 25.1517C25.6984 25.8549 24.7446 26.25 23.75 26.25H6.25C5.25544 26.25 4.30161 25.8549 3.59835 25.1517C2.89509 24.4484 2.5 23.4946 2.5 22.5V12.5C2.5 11.5054 2.89509 10.5516 3.59835 9.84835C4.30161 9.14509 5.25544 8.75 6.25 8.75H23.75C24.7446 8.75 25.6984 9.14509 26.4017 9.84835C27.1049 10.5516 27.5 11.5054 27.5 12.5V22.5ZM20 17.5C20 17.8315 19.8683 18.1495 19.6339 18.3839C19.3995 18.6183 19.0815 18.75 18.75 18.75H16.25V21.25C16.25 21.5815 16.1183 21.8995 15.8839 22.1339C15.6495 22.3683 15.3315 22.5 15 22.5C14.6685 22.5 14.3505 22.3683 14.1161 22.1339C13.8817 21.8995 13.75 21.5815 13.75 21.25V18.75H11.25C10.9185 18.75 10.6005 18.6183 10.3661 18.3839C10.1317 18.1495 10 17.8315 10 17.5C10 17.1685 10.1317 16.8505 10.3661 16.6161C10.6005 16.3817 10.9185 16.25 11.25 16.25H13.75V13.75C13.75 13.4185 13.8817 13.1005 14.1161 12.8661C14.3505 12.6317 14.6685 12.5 15 12.5C15.3315 12.5 15.6495 12.6317 15.8839 12.8661C16.1183 13.1005 16.25 13.4185 16.25 13.75V16.25H18.75C19.0815 16.25 19.3995 16.3817 19.6339 16.6161C19.8683 16.8505 20 17.1685 20 17.5Z" fill="#008EFF"/>
</svg>
