<svg width="100" height="184" viewBox="0 0 100 184" fill="none" xmlns="http://www.w3.org/2000/svg">
<path d="M96.9794 0.813387C97.7151 0.432569 98.6202 0.720266 99.0011 1.45598C99.3819 2.19169 99.0942 3.09681 98.3585 3.47763L96.9794 0.813387ZM56.9951 37.6353L55.7459 36.805L56.9951 37.6353ZM49.071 75.5906L50.4706 75.051L49.071 75.5906ZM55.314 83.4454L54.7023 84.815L54.5239 84.7353L54.3719 84.6126L55.314 83.4454ZM74.3125 80.9865L73.5139 79.7168L74.3125 80.9865ZM85.6488 66.0873L87.0561 66.6063L85.6488 66.0873ZM84.9947 46.5173L83.6365 47.154L83.6097 47.0969L83.5879 47.0378L84.9947 46.5173ZM48.6127 56.5374L47.7475 55.3121L48.6127 56.5374ZM18.9114 94.8553L20.2542 95.5237L18.9114 94.8553ZM8.56589 147.478L10.0654 147.515L8.56589 147.478ZM13.6702 178.138L12.1835 178.337L13.6702 178.138ZM16.0844 182.418C15.7797 183.188 14.9082 183.565 14.1379 183.261L1.584 178.296C0.813628 177.991 0.436111 177.12 0.740781 176.349C1.04545 175.579 1.91694 175.201 2.68731 175.506L13.8463 179.919L18.2596 168.76C18.5642 167.99 19.4357 167.612 20.2061 167.917C20.9765 168.222 21.354 169.093 21.0493 169.864L16.0844 182.418ZM98.3585 3.47763C92.9493 6.27754 84.6339 12.4294 76.7551 19.2466C68.8676 26.0714 61.6166 33.3917 58.2444 38.4656L55.7459 36.805C59.3572 31.3713 66.8735 23.8297 74.7922 16.9779C82.7197 10.1186 91.2494 3.77933 96.9794 0.813387L98.3585 3.47763ZM58.2444 38.4656C55.1826 43.0724 52.208 49.65 50.5264 56.4151C48.8359 63.216 48.5108 69.9681 50.4706 75.051L47.6714 76.1303C45.3877 70.2072 45.8633 62.7383 47.615 55.6914C49.3756 48.6087 52.4849 41.7116 55.7459 36.805L58.2444 38.4656ZM50.4706 75.051C50.9441 76.2793 51.4451 77.3006 52.2694 78.3872C53.1054 79.4892 54.314 80.7104 56.2562 82.2782L54.3719 84.6126C52.3199 82.9562 50.9131 81.5631 49.8793 80.2003C48.8337 78.822 48.2103 77.5281 47.6714 76.1303L50.4706 75.051ZM55.9257 82.0758C59.2152 83.545 62.1053 83.8612 64.8769 83.3948C67.6839 82.9226 70.4705 81.631 73.5139 79.7168L75.1111 82.2563C71.9105 84.2693 68.7366 85.7876 65.3747 86.3533C61.9774 86.9248 58.4903 86.5069 54.7023 84.815L55.9257 82.0758ZM73.5139 79.7168C79.116 76.1933 81.8284 72.1104 84.2415 65.5682L87.0561 66.6063C84.4861 73.5741 81.4275 78.2835 75.1111 82.2563L73.5139 79.7168ZM84.2415 65.5682C86.4297 59.6354 86.3466 52.9344 83.6365 47.154L86.3528 45.8805C89.4309 52.4459 89.4988 59.9838 87.0561 66.6063L84.2415 65.5682ZM83.5879 47.0378C83.203 45.9976 82.5748 45.3623 81.7466 44.9718C80.8708 44.5587 79.6788 44.3796 78.1623 44.4763C75.1123 44.6708 71.233 45.9447 67.2143 47.7208C59.2194 51.2543 51.2542 56.5086 49.4779 57.7628L47.7475 55.3121C49.6085 53.9981 57.7547 48.6217 66.0016 44.9769C70.1039 43.1638 74.3781 41.7116 77.9713 41.4824C79.7764 41.3673 81.5285 41.552 83.0262 42.2583C84.5716 42.9871 85.7465 44.2267 86.4015 45.9968L83.5879 47.0378ZM49.4779 57.7628C35.5241 67.615 27.809 80.3453 20.2542 95.5237L17.5685 94.187C25.181 78.8927 33.1677 65.6063 47.7475 55.3121L49.4779 57.7628ZM20.2542 95.5237C12.0141 112.079 10.5244 128.6 10.0654 147.515L7.06633 147.442C7.5273 128.443 9.01992 111.362 17.5685 94.187L20.2542 95.5237ZM10.0654 147.515C9.94118 152.636 10.8351 157.563 11.9633 162.576C13.0802 167.539 14.4498 172.668 15.1569 177.938L12.1835 178.337C11.4999 173.241 10.1884 168.353 9.03646 163.234C7.89567 158.165 6.93281 152.945 7.06633 147.442L10.0654 147.515ZM15.1569 177.938C15.3534 179.403 15.5415 180.059 16.0659 181.27L13.3131 182.462C12.675 180.989 12.4154 180.065 12.1835 178.337L15.1569 177.938Z" fill="black"/>
</svg>
