<svg width="30" height="27" viewBox="0 0 30 27" fill="none" xmlns="http://www.w3.org/2000/svg">
<path d="M1.33375 16.2637L3.9275 18.11C5.255 19.0537 6.82375 19.535 8.3925 19.535C9.50875 19.535 10.6263 19.2912 11.6575 18.7975L27.8487 11.675C29.7062 10.7875 30.515 8.54499 29.65 6.67499C28.7825 4.80374 26.5562 3.98499 24.68 4.84374L20.7512 6.59624L12.4775 1.48874C11.375 0.668743 9.915 0.521243 8.6625 1.09999L7.68625 1.55749C6.9225 1.91624 6.395 2.62874 6.275 3.46374C6.155 4.29999 6.46 5.13249 7.0925 5.69249L12.3475 10.3425L7.85875 12.345L4.0375 10.9425C2.8075 10.4937 1.4325 10.8912 0.61875 11.9312C0.12875 12.5575 -0.07625 13.3462 0.04125 14.1512C0.165 14.9975 0.635 15.7662 1.3325 16.2612L1.33375 16.2637ZM8.75 3.82124L9.72 3.36624C10.135 3.17374 10.6213 3.22499 11.0763 3.55499L17.99 7.82749L14.8575 9.22499L8.75 3.82124ZM2.58875 13.4737C2.71125 13.3175 2.86875 13.2625 3.00625 13.2625C3.06875 13.2625 7.47375 14.8687 7.47375 14.8687C7.78 14.9812 8.1175 14.97 8.41375 14.8375L25.705 7.12374L25.7212 7.11624C26.3475 6.82749 27.0913 7.10124 27.3813 7.72499C27.6737 8.35874 27.4012 9.11749 26.8062 9.40249L10.615 16.525C8.91875 17.3337 6.91 17.1625 5.37625 16.0725L2.7825 14.2275C2.64 14.1262 2.54125 13.9637 2.51625 13.7925C2.4975 13.665 2.5225 13.5587 2.58875 13.4737ZM30 25.75C30 26.4412 29.44 27 28.75 27H1.25C0.56 27 0 26.4412 0 25.75C0 25.0587 0.56 24.5 1.25 24.5H28.75C29.44 24.5 30 25.0587 30 25.75Z" fill="#F23936"/>
</svg>
