<svg width="30" height="30" viewBox="0 0 30 30" fill="none" xmlns="http://www.w3.org/2000/svg">
<g clip-path="url(#clip0_39_107)">
<path d="M10.0013 9.68255C9.94875 9.68255 10.0538 9.6888 10.0013 9.68255V9.68255ZM5.03 7.49255C4.87625 8.16505 5.2975 8.83505 5.97 8.9888C7.235 9.27755 8.69625 9.51755 10 9.68255C10.6213 9.68255 11.1588 9.2213 11.2388 8.5888C11.325 7.9038 10.84 7.2788 10.155 7.19255C8.93125 7.0388 7.71125 6.8238 6.5275 6.55255C5.85625 6.39505 5.18375 6.82005 5.03 7.49255ZM10.0013 19.7125C9.94875 19.7125 10.0538 19.7188 10.0013 19.7125V19.7125ZM10.155 17.2225C8.93625 17.07 7.71625 16.855 6.52875 16.5838C5.8575 16.4288 5.185 16.85 5.03125 17.5238C4.8775 18.1963 5.29875 18.8663 5.97125 19.02C7.24 19.31 8.7 19.55 10.0013 19.7125C10.6225 19.7125 11.1612 19.25 11.24 18.6175C11.325 17.9325 10.84 17.3075 10.155 17.2225ZM10.0013 14.6825C9.94875 14.6825 10.0538 14.6888 10.0013 14.6825V14.6825ZM10.1562 12.1925C8.9325 12.0388 7.7125 11.8238 6.52875 11.5525C5.8575 11.3938 5.185 11.82 5.03125 12.4925C4.8775 13.165 5.29875 13.835 5.97125 13.9888C7.23625 14.2775 8.6975 14.5175 10.0013 14.6825C10.6225 14.6825 11.16 14.2213 11.24 13.5888C11.3262 12.9038 10.8413 12.2788 10.1562 12.1925ZM19.9987 19.7138C19.9462 19.72 20.05 19.7138 19.9987 19.7138V19.7138ZM25.2938 25.5575C24.0363 25.8913 22.7475 26.1613 21.435 26.3688C23.6163 26.9113 26.1938 27.3876 28.805 27.5026C29.495 27.5326 30.0288 28.1163 29.9988 28.8063C29.97 29.4775 29.4163 30.0013 28.7512 30.0013C28.7325 30.0013 28.7137 30.0013 28.695 30.0013C22.5087 29.73 16.6938 27.635 15 26.975C13.3062 27.635 7.4925 29.73 1.305 30.0013C1.28625 30.0013 1.2675 30.0013 1.24875 30.0013C0.58375 30.0013 0.03 29.4775 0.00125 28.8063C-0.02875 28.1163 0.505 27.5326 1.195 27.5026C3.80625 27.3876 6.38375 26.9113 8.565 26.3688C7.25125 26.1613 5.9625 25.8913 4.705 25.5575C1.935 24.8225 0 22.3288 0 19.4925V5.62505C0 3.87255 0.79375 2.24755 2.17875 1.17005C3.54625 0.105049 5.29 -0.262451 6.9575 0.160049C10.1775 0.976299 12.6588 1.34255 15.0037 1.35005C17.34 1.34255 19.8213 0.976299 23.0425 0.160049C24.7087 -0.261201 26.455 0.105049 27.8213 1.17005C29.205 2.24755 30 3.87255 30 5.62505V19.4925C30 22.3288 28.065 24.8225 25.2938 25.5575ZM13.75 3.8163C11.5562 3.7038 9.21625 3.31255 6.345 2.58505C6.09625 2.5213 5.845 2.4913 5.59625 2.4913C4.92375 2.4913 4.265 2.7163 3.715 3.14255C2.9425 3.7438 2.5 4.6488 2.5 5.62505V19.4925C2.5 21.195 3.67 22.695 5.345 23.14C8.0175 23.8488 10.8387 24.255 13.75 24.3526V3.8163ZM24.6537 23.14C26.33 22.6963 27.5 21.195 27.5 19.4925V5.62505C27.5 4.6488 27.0575 3.7438 26.285 3.14255C25.53 2.5563 24.5763 2.3488 23.655 2.58505C20.7812 3.3138 18.44 3.70505 16.25 3.81755V24.3538C19.1575 24.2575 21.9812 23.85 24.6537 23.1413V23.14ZM19.9987 9.68255C19.945 9.6888 20.05 9.68255 19.9987 9.68255V9.68255ZM23.4713 6.55255C22.2863 6.8238 21.065 7.0388 19.8438 7.19255C19.1588 7.2788 18.6725 7.9038 18.76 8.5888C18.8388 9.2213 19.3775 9.68255 19.9987 9.68255C21.3025 9.5188 22.7625 9.2788 24.0287 8.9888C24.7013 8.83505 25.1225 8.16505 24.9688 7.49255C24.815 6.8188 24.1413 6.3938 23.4713 6.55255ZM19.9987 14.6825C19.945 14.6888 20.05 14.6825 19.9987 14.6825V14.6825ZM23.4713 11.5525C22.2863 11.8238 21.065 12.0388 19.8438 12.1925C19.1588 12.2788 18.6725 12.9038 18.76 13.5888C18.8388 14.2213 19.3775 14.6825 19.9987 14.6825C21.3025 14.5188 22.7625 14.2788 24.0287 13.9888C24.7013 13.835 25.1225 13.165 24.9688 12.4925C24.815 11.8175 24.1413 11.395 23.4713 11.5525ZM23.4713 16.5838C22.2825 16.855 21.0625 17.07 19.845 17.2225C19.16 17.3075 18.6737 17.9325 18.76 18.6175C18.8388 19.25 19.3775 19.7138 19.9987 19.7138C21.2987 19.5513 22.7587 19.3113 24.0287 19.02C24.7013 18.8663 25.1225 18.1963 24.9688 17.5238C24.815 16.8488 24.1413 16.4275 23.4713 16.5838Z" fill="#4732BA"/>
</g>
<defs>
<clipPath id="clip0_39_107">
<rect width="30" height="30" fill="white"/>
</clipPath>
</defs>
</svg>
